<svg id="Layer_1" data-name="Layer 1" xmlns="http://www.w3.org/2000/svg" viewBox="0 0 105.52 105.52"><defs><style>.cls-1{fill:#1a1a1a;}.cls-2{fill:#f69f35;}.cls-3{fill:#8c509f;}.cls-4{fill:#e4e4e4;}</style></defs><title>icon-square</title><rect class="cls-1" width="105.52" height="105.52" rx="21.54"/><path class="cls-2" d="M52.86,18.12c.19.13.39.24.57.37a2.55,2.55,0,0,1,.93,2.73c-.24.93-.49,1.86-.75,2.78,0,.21,0,.31.19.42a16.34,16.34,0,0,1,7.38,7,16,16,0,0,1,2,9.37,18.09,18.09,0,0,1-.54,3c-1.12,4.29-2.28,8.57-3.44,12.84a2,2,0,0,0,.07,1.4c.44,1,.85,2,1.37,2.91,1.62,2.91,3.3,5.78,4.92,8.69A27.42,27.42,0,0,1,67.9,74.7a5.1,5.1,0,0,1,.27,1.59,2.74,2.74,0,0,1-1.43,2.14A9.5,9.5,0,0,1,63,79.78a29.93,29.93,0,0,1-7.44.29c-2.32-.18-4.63-.4-6.93-.75S44,78.5,41.69,78c-2.93-.69-5.84-1.45-8.73-2.26-1.7-.48-3.38-1.08-5.05-1.66s-3.15-1.11-4.68-1.76c-1.78-.75-3.54-1.58-5.27-2.44a28.77,28.77,0,0,1-5.5-3.5,9.5,9.5,0,0,1-2.78-3.23,2.69,2.69,0,0,1,.55-3.49A20.82,20.82,0,0,1,14,56.84c3.13-1.88,6.3-3.7,9.43-5.59,1-.61,2-1.34,3-2A2.08,2.08,0,0,0,27.16,48c1.14-4.33,2.31-8.66,3.47-13a16.56,16.56,0,0,1,16.6-12.2c.32,0,.73.12.93,0s.22-.59.3-.9c.19-.67.36-1.35.55-2a2.53,2.53,0,0,1,2.77-2l.1,0Z"/><path class="cls-2" d="M35.84,79.66c1.39.37,2.77.75,4.16,1.11a.58.58,0,0,1,.46.45,4.55,4.55,0,0,1-1.54,4.91,5.18,5.18,0,0,1-6,1A5.31,5.31,0,0,1,29.66,82a4.06,4.06,0,0,1,1.4-3.31.58.58,0,0,1,.62-.16Z"/><path class="cls-3" d="M86,47.36h0a3.82,3.82,0,0,0-3.82-3.82H66.47c-.08.39-.17.79-.28,1.2-.57,2.16-1.14,4.34-1.71,6.45H82.2A3.82,3.82,0,0,0,86,47.36Z"/><path class="cls-4" d="M82.2,66.79h-14c.19.35.39.7.59,1a31.32,31.32,0,0,1,2.65,5.74c.09.29.17.58.23.86H82.2A3.83,3.83,0,0,0,86,70.61h0A3.82,3.82,0,0,0,82.2,66.79Z"/><path class="cls-4" d="M92.42,31.91H65.5a19.64,19.64,0,0,1,1.42,7.65h25.5a3.82,3.82,0,0,0,3.82-3.82h0A3.83,3.83,0,0,0,92.42,31.91Z"/><path class="cls-4" d="M86.93,55.16H63.41l-.53,2,0,.06c.32.72.62,1.39,1,2,.68,1.22,1.38,2.45,2.07,3.66h21A3.82,3.82,0,0,0,90.76,59h0A3.82,3.82,0,0,0,86.93,55.16Z"/></svg>