<svg id="Layer_1" data-name="Layer 1" xmlns="http://www.w3.org/2000/svg" viewBox="0 0 86.96 69.8"><defs><style>.cls-1{fill:#f69f35;}.cls-2{fill:#8c509f;}.cls-3{fill:#e4e4e4;}</style></defs><title>icon-simple-color</title><path class="cls-1" d="M43.58.26c.19.13.39.24.57.37a2.55,2.55,0,0,1,.93,2.73c-.24.93-.49,1.86-.75,2.78,0,.21,0,.31.19.42a16.39,16.39,0,0,1,7.38,7,16,16,0,0,1,2,9.37,18.09,18.09,0,0,1-.54,3c-1.12,4.29-2.28,8.57-3.44,12.84a2,2,0,0,0,.07,1.4c.44,1,.85,2,1.37,2.91,1.62,2.91,3.3,5.78,4.92,8.69a27.42,27.42,0,0,1,2.36,5.06,4.82,4.82,0,0,1,.26,1.59,2.7,2.7,0,0,1-1.42,2.14,9.55,9.55,0,0,1-3.76,1.35,29.93,29.93,0,0,1-7.44.29c-2.32-.18-4.63-.4-6.93-.75s-4.63-.82-6.92-1.35c-2.93-.69-5.84-1.45-8.73-2.26-1.71-.48-3.38-1.08-5.05-1.66s-3.15-1.1-4.68-1.76c-1.78-.75-3.54-1.58-5.27-2.44a28.77,28.77,0,0,1-5.5-3.5A9.5,9.5,0,0,1,.4,45.26,2.69,2.69,0,0,1,1,41.77,20.82,20.82,0,0,1,4.71,39c3.13-1.88,6.3-3.7,9.43-5.59,1-.61,2-1.34,3-2a2.08,2.08,0,0,0,.77-1.21q1.71-6.5,3.47-13A16.56,16.56,0,0,1,38,5c.32,0,.73.12.93,0s.22-.59.3-.9c.19-.67.36-1.35.55-2A2.53,2.53,0,0,1,42.5,0l.1,0Z"/><path class="cls-1" d="M26.56,61.8c1.39.37,2.77.75,4.16,1.11a.58.58,0,0,1,.46.45,4.55,4.55,0,0,1-1.54,4.91,5.18,5.18,0,0,1-6,1,5.29,5.29,0,0,1-3.22-5.09,4.06,4.06,0,0,1,1.4-3.31.58.58,0,0,1,.62-.16Z"/><path class="cls-2" d="M76.74,29.5h0a3.82,3.82,0,0,0-3.82-3.82H57.19c-.08.39-.17.79-.28,1.2-.57,2.16-1.15,4.34-1.71,6.45H72.92A3.82,3.82,0,0,0,76.74,29.5Z"/><path class="cls-3" d="M72.92,48.93h-14c.19.35.39.7.59,1a31.32,31.32,0,0,1,2.65,5.74c.09.29.17.58.23.86H72.92a3.83,3.83,0,0,0,3.82-3.83h0A3.82,3.82,0,0,0,72.92,48.93Z"/><path class="cls-3" d="M83.14,14.05H56.21a19.47,19.47,0,0,1,1.43,7.65h25.5A3.82,3.82,0,0,0,87,17.88h0A3.83,3.83,0,0,0,83.14,14.05Z"/><path class="cls-3" d="M77.65,37.3H54.13l-.53,2,0,.06c.32.72.62,1.39,1,2,.68,1.22,1.38,2.45,2.07,3.66h21a3.82,3.82,0,0,0,3.83-3.82h0A3.82,3.82,0,0,0,77.65,37.3Z"/></svg>