<svg id="Layer_1" data-name="Layer 1" xmlns="http://www.w3.org/2000/svg" viewBox="0 0 298.3 99.17"><defs><style>.cls-1{fill:#fff;}.cls-2{fill:#f69f35;}.cls-3{fill:#8c509f;}</style></defs><title>splash-logo</title><path class="cls-1" d="M2.9,85.35a5.55,5.55,0,0,1,3.42.88,3,3,0,0,1,1.13,2.49,3.46,3.46,0,0,1-.33,1.57,2.62,2.62,0,0,1-.94,1,4.18,4.18,0,0,1-1.49.58,10.11,10.11,0,0,1-2,.18H1.23v4.19H.16V85.65a8.55,8.55,0,0,1,1.32-.23C2,85.38,2.46,85.35,2.9,85.35Zm.05.93a9.62,9.62,0,0,0-1,0l-.71.07v4.78H2.57a10.67,10.67,0,0,0,1.56-.1,3.34,3.34,0,0,0,1.18-.38,1.85,1.85,0,0,0,.76-.76,2.49,2.49,0,0,0,.27-1.23,2.25,2.25,0,0,0-.29-1.19,2.1,2.1,0,0,0-.77-.74,3.38,3.38,0,0,0-1.08-.38A6.53,6.53,0,0,0,3,86.28Z"/><path class="cls-1" d="M8.54,92.23a5,5,0,0,1,.31-1.85,4.07,4.07,0,0,1,.79-1.32,3.22,3.22,0,0,1,1.13-.79,3.47,3.47,0,0,1,1.3-.26,3.07,3.07,0,0,1,2.37,1,4.33,4.33,0,0,1,.89,3c0,.08,0,.16,0,.25a1.6,1.6,0,0,1,0,.23H9.62a3.61,3.61,0,0,0,.73,2.28,2.72,2.72,0,0,0,2.19.8,4.65,4.65,0,0,0,1.32-.15c.32-.11.55-.2.7-.27l.19.88a4.38,4.38,0,0,1-.82.29,5,5,0,0,1-1.42.17,4.66,4.66,0,0,1-1.81-.31,3.39,3.39,0,0,1-1.24-.87,3.65,3.65,0,0,1-.7-1.34A6.08,6.08,0,0,1,8.54,92.23Zm5.74-.64a3.19,3.19,0,0,0-.6-2,1.9,1.9,0,0,0-1.59-.7,2.11,2.11,0,0,0-1,.22,2.61,2.61,0,0,0-.75.58,2.82,2.82,0,0,0-.5.86,3.43,3.43,0,0,0-.21,1Z"/><path class="cls-1" d="M20.34,88a5.7,5.7,0,0,1,.95.08,2.92,2.92,0,0,1,.62.16l-.21.87a2.54,2.54,0,0,0-.5-.13,5.62,5.62,0,0,0-1-.07,5,5,0,0,0-1.06.09,3.82,3.82,0,0,0-.52.16v7.08h-1V88.57a8.11,8.11,0,0,1,1.08-.35A6.72,6.72,0,0,1,20.34,88Z"/><path class="cls-1" d="M25.1,95.56a3.08,3.08,0,0,0,1.44-.29,1,1,0,0,0,.57-1,1.42,1.42,0,0,0-.1-.57,1.27,1.27,0,0,0-.33-.42,3.77,3.77,0,0,0-.62-.36l-.95-.4-.86-.39a3.67,3.67,0,0,1-.72-.45,2,2,0,0,1-.5-.62,1.93,1.93,0,0,1-.19-.87,2,2,0,0,1,.75-1.6,3.14,3.14,0,0,1,2-.61,5.77,5.77,0,0,1,1.37.14,4.86,4.86,0,0,1,.75.25l-.23.91c-.13-.06-.34-.15-.63-.25a4.33,4.33,0,0,0-1.31-.16,3.41,3.41,0,0,0-.65.07,1.86,1.86,0,0,0-.54.22,1.22,1.22,0,0,0-.37.38,1,1,0,0,0-.14.55,1.26,1.26,0,0,0,.12.57,1.3,1.3,0,0,0,.37.41,3,3,0,0,0,.59.34l.81.34.9.38a3.61,3.61,0,0,1,.76.47,2.3,2.3,0,0,1,.53.66,2.07,2.07,0,0,1,.2,1,1.88,1.88,0,0,1-.82,1.66,4,4,0,0,1-2.24.56,5.68,5.68,0,0,1-1.63-.18,7.08,7.08,0,0,1-.75-.27l.27-.93.2.11.42.15a4.18,4.18,0,0,0,.63.15A5.43,5.43,0,0,0,25.1,95.56Z"/><path class="cls-1" d="M37,92.25A5.28,5.28,0,0,1,36.75,94,3.7,3.7,0,0,1,36,95.31a3.26,3.26,0,0,1-1.16.85,3.71,3.71,0,0,1-3,0,3.26,3.26,0,0,1-1.16-.85A3.7,3.7,0,0,1,29.92,94a5.71,5.71,0,0,1,0-3.47,3.88,3.88,0,0,1,.77-1.33,3.29,3.29,0,0,1,1.16-.86,3.71,3.71,0,0,1,3,0,3.29,3.29,0,0,1,1.16.86,3.88,3.88,0,0,1,.77,1.33A5.29,5.29,0,0,1,37,92.25Zm-1.07,0a3.83,3.83,0,0,0-.71-2.42,2.47,2.47,0,0,0-3.81,0,4.46,4.46,0,0,0,0,4.83,2.48,2.48,0,0,0,3.81,0A3.8,3.8,0,0,0,36,92.25Z"/><path class="cls-1" d="M39.23,88.48c.3-.08.71-.18,1.22-.28A9.79,9.79,0,0,1,42.32,88a3.83,3.83,0,0,1,1.54.27,2.44,2.44,0,0,1,1,.76,3.1,3.1,0,0,1,.52,1.18,6.48,6.48,0,0,1,.16,1.51v4.52h-1V92.09a7.42,7.42,0,0,0-.12-1.45,2.2,2.2,0,0,0-.39-1,1.52,1.52,0,0,0-.71-.54A3.28,3.28,0,0,0,42.17,89a9.09,9.09,0,0,0-1.25.07,5.21,5.21,0,0,0-.68.14v7.1h-1Z"/><path class="cls-1" d="M50.58,88a3.59,3.59,0,0,1,1.35.23,2.37,2.37,0,0,1,.9.62,2.62,2.62,0,0,1,.5,1A4.45,4.45,0,0,1,53.49,91v5.09a3.5,3.5,0,0,1-.46.11l-.69.11c-.26,0-.55.08-.86.1s-.65,0-1,0a4.39,4.39,0,0,1-1.18-.14,2.63,2.63,0,0,1-.94-.44,2.26,2.26,0,0,1-.62-.78,2.6,2.6,0,0,1-.23-1.17,2.29,2.29,0,0,1,.25-1.12,2.18,2.18,0,0,1,.7-.78,3.1,3.1,0,0,1,1.08-.44,5.86,5.86,0,0,1,1.36-.14,3.62,3.62,0,0,1,.46,0c.16,0,.32,0,.47.06l.39.08.23.07v-.5a5.55,5.55,0,0,0-.06-.82,1.9,1.9,0,0,0-.28-.72,1.58,1.58,0,0,0-.59-.52,2.25,2.25,0,0,0-1-.19A5.45,5.45,0,0,0,49.2,89l-.64.21-.14-.89a3.29,3.29,0,0,1,.82-.24A7.31,7.31,0,0,1,50.58,88Zm.09,7.54c.4,0,.74,0,1,0s.55-.06.76-.1V92.56a2.94,2.94,0,0,0-.55-.16,4.6,4.6,0,0,0-1-.09,5.32,5.32,0,0,0-.78.06,2.12,2.12,0,0,0-.75.23,1.48,1.48,0,0,0-.56.49,1.4,1.4,0,0,0-.22.83,1.79,1.79,0,0,0,.15.77,1.13,1.13,0,0,0,.42.5,2,2,0,0,0,.65.27A3.88,3.88,0,0,0,50.67,95.55Z"/><path class="cls-1" d="M58.13,96.42a3.3,3.3,0,0,1-.9-.13,1.6,1.6,0,0,1-.64-.36,1.54,1.54,0,0,1-.39-.63,2.87,2.87,0,0,1-.14-1v-10l1-.19V94.31a2,2,0,0,0,.07.6.78.78,0,0,0,.21.36.88.88,0,0,0,.37.2,4.63,4.63,0,0,0,.54.11Z"/><path class="cls-2" d="M63.4,86l1.89-.31v2.47H68.2v1.57H65.29V93a2.41,2.41,0,0,0,.31,1.41,1.24,1.24,0,0,0,1.06.42,3.22,3.22,0,0,0,.92-.11c.26-.07.47-.14.63-.2l.31,1.5a6.07,6.07,0,0,1-.86.29,4.6,4.6,0,0,1-1.25.15A3.88,3.88,0,0,1,65,96.23a2.15,2.15,0,0,1-.93-.67,2.67,2.67,0,0,1-.48-1.08A6.43,6.43,0,0,1,63.4,93Z"/><path class="cls-2" d="M72.74,87.9a4.49,4.49,0,0,1,1.58.24,2.5,2.5,0,0,1,1,.65,2.61,2.61,0,0,1,.54,1,5,5,0,0,1,.17,1.32v5c-.29.07-.73.14-1.32.23a13.43,13.43,0,0,1-2,.13,5.63,5.63,0,0,1-1.34-.14,2.74,2.74,0,0,1-1-.45,2.12,2.12,0,0,1-.67-.81,2.89,2.89,0,0,1-.24-1.24,2.43,2.43,0,0,1,.27-1.19,2.33,2.33,0,0,1,.74-.79,3.31,3.31,0,0,1,1.09-.43,6,6,0,0,1,1.29-.14c.21,0,.43,0,.65,0a5.6,5.6,0,0,1,.74.14v-.32a2.51,2.51,0,0,0-.08-.62,1.22,1.22,0,0,0-.79-.88,2.29,2.29,0,0,0-.8-.12,7.55,7.55,0,0,0-1.21.09,5.49,5.49,0,0,0-.89.22l-.23-1.53a6.37,6.37,0,0,1,1-.25A7.66,7.66,0,0,1,72.74,87.9Zm.16,7a7.36,7.36,0,0,0,1.33-.09v-2.1a3.9,3.9,0,0,0-.45-.09,4.18,4.18,0,0,0-1.29,0,2,2,0,0,0-.58.17,1.19,1.19,0,0,0-.42.35,1.06,1.06,0,0,0-.15.58,1,1,0,0,0,.42.93A2.19,2.19,0,0,0,72.9,95Z"/><path class="cls-2" d="M80.42,94.92a2.44,2.44,0,0,0,1.09-.18.64.64,0,0,0,.35-.62.79.79,0,0,0-.37-.67,5.72,5.72,0,0,0-1.21-.58,9.38,9.38,0,0,1-1-.39,3.69,3.69,0,0,1-.74-.5,1.89,1.89,0,0,1-.49-.68,2.33,2.33,0,0,1-.18-1,2.12,2.12,0,0,1,.83-1.78A3.56,3.56,0,0,1,81,87.9a6.7,6.7,0,0,1,1.37.14,6.3,6.3,0,0,1,1,.25L83,89.83a4.42,4.42,0,0,0-.8-.26,4.78,4.78,0,0,0-1.13-.12,2,2,0,0,0-.94.2.64.64,0,0,0-.36.6.86.86,0,0,0,.08.36.7.7,0,0,0,.24.29,2.84,2.84,0,0,0,.45.26c.19.09.42.18.69.28a9.24,9.24,0,0,1,1.14.49,2.87,2.87,0,0,1,.77.55,1.72,1.72,0,0,1,.45.69,2.86,2.86,0,0,1,.14.94,2,2,0,0,1-.87,1.77,4.32,4.32,0,0,1-2.48.61,6.79,6.79,0,0,1-1.73-.18,8.85,8.85,0,0,1-.92-.29l.33-1.58c.28.11.61.22,1,.33A5.43,5.43,0,0,0,80.42,94.92Z"/><path class="cls-2" d="M87.41,91.29c.24-.24.49-.51.76-.8s.54-.57.8-.86.51-.56.74-.83.44-.5.61-.69h2.23l-1.64,1.81q-.87.93-1.74,1.83a10.47,10.47,0,0,1,1,.94c.34.37.67.77,1,1.18s.62.84.9,1.26a11.12,11.12,0,0,1,.7,1.15H90.57c-.19-.32-.41-.66-.65-1s-.51-.7-.79-1-.57-.64-.86-.94a7.22,7.22,0,0,0-.86-.76v3.75H85.52V84.46l1.89-.31Z"/><path class="cls-2" d="M100.62,96.44a4.88,4.88,0,0,1-1.4-.19,2.07,2.07,0,0,1-.88-.49,1.79,1.79,0,0,1-.47-.8,4.46,4.46,0,0,1-.13-1.09V84.46l1.89-.31v9.36a2.35,2.35,0,0,0,.06.58.88.88,0,0,0,.19.4.91.91,0,0,0,.39.25,2.68,2.68,0,0,0,.61.13Z"/><path class="cls-2" d="M104.53,85.71a1.09,1.09,0,0,1-.35.85,1.16,1.16,0,0,1-.81.31,1.19,1.19,0,0,1-.83-.31,1.09,1.09,0,0,1-.34-.85,1.11,1.11,0,0,1,.34-.86,1.24,1.24,0,0,1,.83-.31,1.2,1.2,0,0,1,.81.31A1.11,1.11,0,0,1,104.53,85.71Zm-.21,10.57h-1.89V88.11h1.89Z"/><path class="cls-2" d="M108.78,94.92a2.47,2.47,0,0,0,1.09-.18.64.64,0,0,0,.35-.62.82.82,0,0,0-.37-.67,6,6,0,0,0-1.21-.58,8.51,8.51,0,0,1-1-.39A3.42,3.42,0,0,1,107,92a1.89,1.89,0,0,1-.49-.68,2.33,2.33,0,0,1-.18-1,2.14,2.14,0,0,1,.82-1.78,3.61,3.61,0,0,1,2.26-.65,6.77,6.77,0,0,1,1.37.14,6.3,6.3,0,0,1,1,.25l-.35,1.54a4.3,4.3,0,0,0-.79-.26,4.78,4.78,0,0,0-1.13-.12,2,2,0,0,0-.94.2.64.64,0,0,0-.36.6,1,1,0,0,0,.07.36.9.9,0,0,0,.24.29,3.59,3.59,0,0,0,.46.26c.19.09.41.18.69.28a10.79,10.79,0,0,1,1.14.49,2.87,2.87,0,0,1,.77.55,2,2,0,0,1,.45.69,2.86,2.86,0,0,1,.14.94,2,2,0,0,1-.87,1.77,4.32,4.32,0,0,1-2.48.61,6.68,6.68,0,0,1-1.73-.18c-.44-.12-.75-.22-.93-.29l.33-1.58c.28.11.62.22,1,.33A5.43,5.43,0,0,0,108.78,94.92Z"/><path class="cls-2" d="M113.78,86l1.89-.31v2.47h2.91v1.57h-2.91V93a2.49,2.49,0,0,0,.31,1.41,1.26,1.26,0,0,0,1.07.42,3.15,3.15,0,0,0,.91-.11,5.35,5.35,0,0,0,.63-.2l.32,1.5a6.55,6.55,0,0,1-.86.29,4.65,4.65,0,0,1-1.25.15,3.93,3.93,0,0,1-1.47-.24,2.15,2.15,0,0,1-.93-.67,2.81,2.81,0,0,1-.48-1.08,7.06,7.06,0,0,1-.14-1.45Z"/><path class="cls-1" d="M126.57,88a3.59,3.59,0,0,1,1.35.23,2.37,2.37,0,0,1,.9.62,2.62,2.62,0,0,1,.5,1,4.45,4.45,0,0,1,.16,1.19v5.09a3.5,3.5,0,0,1-.46.11l-.69.11c-.26,0-.55.08-.86.1s-.65,0-1,0a4.39,4.39,0,0,1-1.18-.14,2.63,2.63,0,0,1-.94-.44,2.26,2.26,0,0,1-.62-.78,2.6,2.6,0,0,1-.23-1.17,2.29,2.29,0,0,1,.25-1.12,2.18,2.18,0,0,1,.7-.78,3.1,3.1,0,0,1,1.08-.44,5.86,5.86,0,0,1,1.36-.14,3.62,3.62,0,0,1,.46,0c.16,0,.32,0,.47.06l.39.08.23.07v-.5a5.55,5.55,0,0,0-.06-.82,1.9,1.9,0,0,0-.28-.72,1.58,1.58,0,0,0-.59-.52,2.25,2.25,0,0,0-1-.19,5.45,5.45,0,0,0-1.33.12l-.64.21-.14-.89a3.29,3.29,0,0,1,.82-.24A7.31,7.31,0,0,1,126.57,88Zm.09,7.54c.4,0,.74,0,1,0s.55-.06.76-.1V92.56a2.94,2.94,0,0,0-.55-.16,4.6,4.6,0,0,0-1-.09,5.32,5.32,0,0,0-.78.06,2.12,2.12,0,0,0-.75.23,1.59,1.59,0,0,0-.57.49,1.48,1.48,0,0,0-.21.83,2,2,0,0,0,.14.77,1.23,1.23,0,0,0,.43.5,2,2,0,0,0,.65.27A3.88,3.88,0,0,0,126.66,95.55Z"/><path class="cls-1" d="M132.07,88.48c.3-.08.71-.18,1.22-.28a9.91,9.91,0,0,1,1.88-.16,3.9,3.9,0,0,1,1.54.27,2.34,2.34,0,0,1,1,.76,3.1,3.1,0,0,1,.52,1.18,6.48,6.48,0,0,1,.16,1.51v4.52h-1V92.09a8.4,8.4,0,0,0-.11-1.45,2.46,2.46,0,0,0-.39-1,1.6,1.6,0,0,0-.72-.54A3.28,3.28,0,0,0,135,89a8.94,8.94,0,0,0-1.24.07,4.84,4.84,0,0,0-.68.14v7.1h-1Z"/><path class="cls-1" d="M147.39,96a9.07,9.07,0,0,1-1.16.3,9.64,9.64,0,0,1-1.78.14,4.45,4.45,0,0,1-1.62-.29,3.45,3.45,0,0,1-1.25-.84,3.67,3.67,0,0,1-.81-1.32,5.17,5.17,0,0,1-.29-1.77,5.72,5.72,0,0,1,.24-1.7,3.86,3.86,0,0,1,.71-1.33,3.31,3.31,0,0,1,1.15-.88,3.68,3.68,0,0,1,1.56-.31,3.84,3.84,0,0,1,1.38.22,4.07,4.07,0,0,1,.85.43V84.34l1-.19Zm-1-6.36-.35-.24a3.22,3.22,0,0,0-.49-.23,4.87,4.87,0,0,0-.61-.18,3.11,3.11,0,0,0-.69-.07,2.67,2.67,0,0,0-1.26.27,2.17,2.17,0,0,0-.82.71,2.81,2.81,0,0,0-.45,1,5.91,5.91,0,0,0-.14,1.28,3.43,3.43,0,0,0,.8,2.45,2.77,2.77,0,0,0,2.11.85,9.5,9.5,0,0,0,1.21-.07,4.76,4.76,0,0,0,.69-.15Z"/><path class="cls-2" d="M158.16,89.81a5.12,5.12,0,0,0-.65-.16,4.48,4.48,0,0,0-1-.09,3.85,3.85,0,0,0-.66.06,4.13,4.13,0,0,0-.5.11v6.55H153.5V88.5a9.81,9.81,0,0,1,1.37-.39,8.5,8.5,0,0,1,1.82-.18l.44,0a4.26,4.26,0,0,1,.5.06l.48.09a2.64,2.64,0,0,1,.38.11Z"/><path class="cls-2" d="M159.35,92.23a5.19,5.19,0,0,1,.32-1.89,4,4,0,0,1,.85-1.35,3.52,3.52,0,0,1,1.22-.81,3.66,3.66,0,0,1,1.41-.28,3.36,3.36,0,0,1,2.63,1,4.54,4.54,0,0,1,.95,3.13c0,.1,0,.22,0,.35s0,.25,0,.35h-5.4a2.14,2.14,0,0,0,.7,1.52,2.64,2.64,0,0,0,1.79.54,6.13,6.13,0,0,0,1.26-.12,4.47,4.47,0,0,0,.9-.27L166.2,96a2.85,2.85,0,0,1-.43.16,6.39,6.39,0,0,1-.63.16,7.59,7.59,0,0,1-.76.12,7.4,7.4,0,0,1-.83,0,4.84,4.84,0,0,1-1.87-.33,3.42,3.42,0,0,1-1.31-.89,3.65,3.65,0,0,1-.77-1.34A5.41,5.41,0,0,1,159.35,92.23Zm5.49-.84a2.55,2.55,0,0,0-.11-.74,1.86,1.86,0,0,0-.32-.61,1.48,1.48,0,0,0-.52-.41,1.64,1.64,0,0,0-.73-.15,1.67,1.67,0,0,0-.76.17,1.71,1.71,0,0,0-.56.43,1.84,1.84,0,0,0-.35.61,3.25,3.25,0,0,0-.17.7Z"/><path class="cls-2" d="M173.39,92a4,4,0,0,0-.32-1.85,1.27,1.27,0,0,0-1.2-.57,5.89,5.89,0,0,0-.69,0l-.56.07v6.6h-1.89V88.37c.36-.1.84-.2,1.43-.3a12.35,12.35,0,0,1,1.87-.14,3.83,3.83,0,0,1,1.38.22,2.74,2.74,0,0,1,.9.58,3.2,3.2,0,0,1,.44-.26,3.6,3.6,0,0,1,.59-.26,4.77,4.77,0,0,1,.7-.2,3.65,3.65,0,0,1,.74-.08,3.91,3.91,0,0,1,1.57.28,2.33,2.33,0,0,1,1,.76,3,3,0,0,1,.48,1.19,8,8,0,0,1,.14,1.53v4.59h-1.89V92a4,4,0,0,0-.32-1.85,1.25,1.25,0,0,0-1.2-.57,2.47,2.47,0,0,0-.86.15,2.69,2.69,0,0,0-.61.29,4.2,4.2,0,0,1,.17.83,9,9,0,0,1,.05.93v4.52h-1.89Z"/><path class="cls-2" d="M184.36,85.71a1.09,1.09,0,0,1-.34.85,1.24,1.24,0,0,1-1.64,0,1.09,1.09,0,0,1-.35-.85,1.11,1.11,0,0,1,.35-.86,1.24,1.24,0,0,1,1.64,0A1.11,1.11,0,0,1,184.36,85.71Zm-.2,10.57h-1.89V88.11h1.89Z"/><path class="cls-2" d="M186.57,88.37c.36-.1.83-.2,1.42-.3a12.71,12.71,0,0,1,1.94-.14,4.52,4.52,0,0,1,1.67.28,2.67,2.67,0,0,1,1.07.76,2.92,2.92,0,0,1,.56,1.19,6.64,6.64,0,0,1,.17,1.53v4.59h-1.89V92a5.85,5.85,0,0,0-.09-1.11,2.12,2.12,0,0,0-.28-.76,1.16,1.16,0,0,0-.53-.42,2.24,2.24,0,0,0-.82-.13,6.59,6.59,0,0,0-.75,0l-.58.07v6.6h-1.89Z"/><path class="cls-2" d="M202.62,96a9.84,9.84,0,0,1-1.41.31,10.38,10.38,0,0,1-1.79.15,4.74,4.74,0,0,1-1.74-.3,3.67,3.67,0,0,1-1.31-.85,3.82,3.82,0,0,1-.82-1.35,4.94,4.94,0,0,1-.29-1.77,6,6,0,0,1,.24-1.76,3.78,3.78,0,0,1,.71-1.35,3,3,0,0,1,1.14-.87,3.79,3.79,0,0,1,1.55-.31,3.71,3.71,0,0,1,1,.14,4.84,4.84,0,0,1,.78.32V84.46l1.89-.31Zm-5.42-3.86a2.94,2.94,0,0,0,.59,2,2,2,0,0,0,1.64.71,5.94,5.94,0,0,0,.78,0,4.46,4.46,0,0,0,.52-.08V90a2.8,2.8,0,0,0-.67-.32,2.54,2.54,0,0,0-.88-.15,1.69,1.69,0,0,0-1.51.7A3.36,3.36,0,0,0,197.2,92.17Z"/><path class="cls-2" d="M204.57,92.23a5.19,5.19,0,0,1,.32-1.89,4,4,0,0,1,.86-1.35,3.43,3.43,0,0,1,1.22-.81,3.57,3.57,0,0,1,1.4-.28A3.37,3.37,0,0,1,211,89a4.54,4.54,0,0,1,.94,3.13v.35c0,.13,0,.25,0,.35h-5.39a2.13,2.13,0,0,0,.69,1.52,2.66,2.66,0,0,0,1.79.54,6.13,6.13,0,0,0,1.26-.12,4.47,4.47,0,0,0,.9-.27l.25,1.55a2.48,2.48,0,0,1-.43.16,6.15,6.15,0,0,1-.62.16c-.24.05-.49.09-.76.12a7.55,7.55,0,0,1-.83,0,4.93,4.93,0,0,1-1.88-.33,3.42,3.42,0,0,1-1.31-.89,3.79,3.79,0,0,1-.77-1.34A5.72,5.72,0,0,1,204.57,92.23Zm5.49-.84a2.55,2.55,0,0,0-.11-.74,1.69,1.69,0,0,0-.32-.61,1.45,1.45,0,0,0-.51-.41,1.67,1.67,0,0,0-.73-.15,1.71,1.71,0,0,0-.77.17,1.67,1.67,0,0,0-.55.43,1.84,1.84,0,0,0-.35.61,3.27,3.27,0,0,0-.18.7Z"/><path class="cls-2" d="M218.61,89.81a4.72,4.72,0,0,0-.65-.16,4.48,4.48,0,0,0-1-.09,3.85,3.85,0,0,0-.66.06,3.47,3.47,0,0,0-.49.11v6.55H214V88.5a9.81,9.81,0,0,1,1.37-.39,8.57,8.57,0,0,1,1.82-.18l.44,0a4.26,4.26,0,0,1,.5.06l.49.09a2.87,2.87,0,0,1,.37.11Z"/><path class="cls-1" d="M226.41,88a3.65,3.65,0,0,1,1.36.23,2.26,2.26,0,0,1,.89.62,2.48,2.48,0,0,1,.5,1,4.08,4.08,0,0,1,.16,1.19v5.09a2.94,2.94,0,0,1-.45.11l-.69.11c-.26,0-.55.08-.87.1s-.64,0-1,0a4.47,4.47,0,0,1-1.19-.14,2.58,2.58,0,0,1-.93-.44,2.17,2.17,0,0,1-.63-.78,2.74,2.74,0,0,1-.23-1.17,2.29,2.29,0,0,1,.26-1.12,2.09,2.09,0,0,1,.7-.78,3.1,3.1,0,0,1,1.08-.44,5.8,5.8,0,0,1,1.36-.14,3.7,3.7,0,0,1,.46,0c.16,0,.32,0,.47.06l.39.08.22.07v-.5a5.55,5.55,0,0,0-.06-.82,1.74,1.74,0,0,0-.27-.72,1.54,1.54,0,0,0-.6-.52,2.2,2.2,0,0,0-1-.19A5.39,5.39,0,0,0,225,89l-.64.21-.14-.89a3.16,3.16,0,0,1,.82-.24A7.2,7.2,0,0,1,226.41,88Zm.1,7.54c.39,0,.74,0,1,0s.55-.06.75-.1V92.56a2.58,2.58,0,0,0-.54-.16,4.66,4.66,0,0,0-1-.09,5.56,5.56,0,0,0-.79.06,2.12,2.12,0,0,0-.75.23,1.56,1.56,0,0,0-.56.49,1.48,1.48,0,0,0-.22.83,1.79,1.79,0,0,0,.15.77,1.28,1.28,0,0,0,.42.5,2.08,2.08,0,0,0,.66.27A3.75,3.75,0,0,0,226.51,95.55Z"/><path class="cls-1" d="M232.93,99.17h-1V88.48a10.86,10.86,0,0,1,1.15-.3,9.76,9.76,0,0,1,1.79-.14,4.35,4.35,0,0,1,1.61.29,3.49,3.49,0,0,1,1.25.84,3.88,3.88,0,0,1,.82,1.33,5.11,5.11,0,0,1,.29,1.76,5.41,5.41,0,0,1-.25,1.7,3.77,3.77,0,0,1-.71,1.33,3.22,3.22,0,0,1-1.15.87,3.64,3.64,0,0,1-1.55.31,3.89,3.89,0,0,1-1.39-.23,3.46,3.46,0,0,1-.85-.43Zm0-4.34c.1.07.21.15.35.23a3.34,3.34,0,0,0,.5.24,4.42,4.42,0,0,0,.61.18,3.64,3.64,0,0,0,.68.07,2.8,2.8,0,0,0,1.26-.26,2.24,2.24,0,0,0,.82-.7,3.13,3.13,0,0,0,.46-1,5.84,5.84,0,0,0,.14-1.28,3.45,3.45,0,0,0-.8-2.44,2.75,2.75,0,0,0-2.11-.85,8,8,0,0,0-1.21.07,4.24,4.24,0,0,0-.7.14Z"/><path class="cls-1" d="M242.05,99.17h-1V88.48a11.13,11.13,0,0,1,1.16-.3A9.64,9.64,0,0,1,244,88a4.45,4.45,0,0,1,1.62.29,3.58,3.58,0,0,1,1.25.84,3.72,3.72,0,0,1,.81,1.33,5.11,5.11,0,0,1,.29,1.76,5.72,5.72,0,0,1-.24,1.7,3.77,3.77,0,0,1-.71,1.33,3.4,3.4,0,0,1-1.15.87,3.71,3.71,0,0,1-1.56.31,3.83,3.83,0,0,1-1.38-.23,3.28,3.28,0,0,1-.85-.43Zm0-4.34a3,3,0,0,0,.35.23,3.2,3.2,0,0,0,.49.24,4.87,4.87,0,0,0,.61.18,3.84,3.84,0,0,0,.69.07,2.8,2.8,0,0,0,1.26-.26,2.32,2.32,0,0,0,.82-.7,3.12,3.12,0,0,0,.45-1,5.84,5.84,0,0,0,.14-1.28,3.45,3.45,0,0,0-.8-2.44A2.74,2.74,0,0,0,244,89a8,8,0,0,0-1.21.07,3.87,3.87,0,0,0-.69.14Z"/><path class="cls-1" d="M252.19,96.42a3.42,3.42,0,0,1-.9-.13,1.67,1.67,0,0,1-.64-.36,1.54,1.54,0,0,1-.39-.63,2.89,2.89,0,0,1-.13-1v-10l1-.19V94.31a2.35,2.35,0,0,0,.07.6.72.72,0,0,0,.22.36.79.79,0,0,0,.36.2,4.63,4.63,0,0,0,.54.11Z"/><path class="cls-1" d="M255.38,85.76a.74.74,0,0,1-.22.57.77.77,0,0,1-1.06,0,.85.85,0,0,1,0-1.14.77.77,0,0,1,1.06,0A.74.74,0,0,1,255.38,85.76Zm-.23,10.52h-1V88.2h1Z"/><path class="cls-1" d="M261.18,96.45a4.51,4.51,0,0,1-1.66-.29,3,3,0,0,1-1.19-.86A3.76,3.76,0,0,1,257.6,94a5.5,5.5,0,0,1-.25-1.72,5.56,5.56,0,0,1,.26-1.73,4,4,0,0,1,.74-1.35,3.24,3.24,0,0,1,1.17-.86,3.7,3.7,0,0,1,1.55-.31,6.78,6.78,0,0,1,1.23.11,3.14,3.14,0,0,1,.88.28l-.26.88a3,3,0,0,0-.71-.25,4.77,4.77,0,0,0-1-.1,2.47,2.47,0,0,0-2,.87,3.87,3.87,0,0,0-.69,2.46,5.1,5.1,0,0,0,.16,1.33,2.68,2.68,0,0,0,.5,1,2.48,2.48,0,0,0,.91.67,3.4,3.4,0,0,0,1.35.24,3.44,3.44,0,0,0,1.1-.15,4.74,4.74,0,0,0,.65-.25l.22.87a4.07,4.07,0,0,1-.88.31A5.72,5.72,0,0,1,261.18,96.45Z"/><path class="cls-1" d="M267.48,88a3.59,3.59,0,0,1,1.35.23,2.37,2.37,0,0,1,.9.62,2.48,2.48,0,0,1,.5,1,4.08,4.08,0,0,1,.16,1.19v5.09a3.5,3.5,0,0,1-.46.11l-.68.11c-.26,0-.55.08-.87.1s-.64,0-1,0a4.39,4.39,0,0,1-1.18-.14,2.63,2.63,0,0,1-.94-.44,2.26,2.26,0,0,1-.62-.78,2.74,2.74,0,0,1-.23-1.17,2.41,2.41,0,0,1,.25-1.12,2.12,2.12,0,0,1,.71-.78,3.13,3.13,0,0,1,1.07-.44,5.86,5.86,0,0,1,1.36-.14,3.86,3.86,0,0,1,.47,0c.16,0,.31,0,.46.06l.4.08.22.07v-.5a5.55,5.55,0,0,0-.06-.82,1.74,1.74,0,0,0-.27-.72,1.54,1.54,0,0,0-.6-.52,2.22,2.22,0,0,0-1-.19,5.5,5.5,0,0,0-1.33.12l-.64.21-.14-.89a3.29,3.29,0,0,1,.82-.24A7.31,7.31,0,0,1,267.48,88Zm.09,7.54c.4,0,.75,0,1,0s.55-.06.76-.1V92.56a2.72,2.72,0,0,0-.55-.16,4.6,4.6,0,0,0-1-.09,5.32,5.32,0,0,0-.78.06,2.12,2.12,0,0,0-.75.23,1.48,1.48,0,0,0-.56.49,1.4,1.4,0,0,0-.22.83,1.79,1.79,0,0,0,.15.77,1.28,1.28,0,0,0,.42.5,2,2,0,0,0,.66.27A3.72,3.72,0,0,0,267.57,95.55Z"/><path class="cls-1" d="M273.94,88.2h3.22v.86h-3.22v4.3a4.85,4.85,0,0,0,.11,1.12,1.58,1.58,0,0,0,.34.66,1,1,0,0,0,.53.31,2.51,2.51,0,0,0,.69.08,2.91,2.91,0,0,0,1-.15,5.57,5.57,0,0,0,.61-.27l.25.84a3.4,3.4,0,0,1-.77.32,3.74,3.74,0,0,1-1.18.18,3.56,3.56,0,0,1-1.26-.19,1.77,1.77,0,0,1-.81-.6,2.25,2.25,0,0,1-.43-1,6.39,6.39,0,0,1-.13-1.41V85.82l1-.18Z"/><path class="cls-1" d="M280.28,85.76a.74.74,0,0,1-.22.57.72.72,0,0,1-.53.21.74.74,0,0,1-.53-.21.85.85,0,0,1,0-1.14.74.74,0,0,1,.53-.21.72.72,0,0,1,.53.21A.74.74,0,0,1,280.28,85.76Zm-.23,10.52h-1V88.2h1Z"/><path class="cls-1" d="M289.63,92.25a5.28,5.28,0,0,1-.27,1.73,3.7,3.7,0,0,1-.77,1.33,3.35,3.35,0,0,1-1.16.85,3.49,3.49,0,0,1-1.49.31,3.44,3.44,0,0,1-1.48-.31,3.39,3.39,0,0,1-1.17-.85,3.68,3.68,0,0,1-.76-1.33,5.52,5.52,0,0,1,0-3.47,3.86,3.86,0,0,1,.76-1.33A3.49,3.49,0,0,1,285.94,88a3.49,3.49,0,0,1,1.49.31,3.38,3.38,0,0,1,1.16.86,3.88,3.88,0,0,1,.77,1.33A5.29,5.29,0,0,1,289.63,92.25Zm-1.08,0a3.83,3.83,0,0,0-.7-2.42,2.3,2.3,0,0,0-1.91-.9,2.27,2.27,0,0,0-1.9.9,4.46,4.46,0,0,0,0,4.83,2.29,2.29,0,0,0,1.9.89,2.32,2.32,0,0,0,1.91-.89A3.8,3.8,0,0,0,288.55,92.25Z"/><path class="cls-1" d="M291.84,88.48c.3-.08.7-.18,1.22-.28a9.79,9.79,0,0,1,1.87-.16,3.83,3.83,0,0,1,1.54.27,2.44,2.44,0,0,1,1,.76,3.1,3.1,0,0,1,.52,1.18,7.07,7.07,0,0,1,.16,1.51v4.52h-1V92.09a7.42,7.42,0,0,0-.12-1.45,2.46,2.46,0,0,0-.39-1,1.5,1.5,0,0,0-.72-.54,3.24,3.24,0,0,0-1.12-.16,9,9,0,0,0-1.24.07,5.21,5.21,0,0,0-.68.14v7.1h-1Z"/><path class="cls-1" d="M2.63,66.23A2.49,2.49,0,0,1,.51,65.12a2.39,2.39,0,0,1-.35-2.34L20.29,5.47a5.64,5.64,0,0,1,8.52-2.69,5.65,5.65,0,0,1,2.08,2.69l20,57.22a2.54,2.54,0,0,1-.35,2.43,2.49,2.49,0,0,1-2.12,1.11,5.27,5.27,0,0,1-5-3.62L38.75,48.12a1,1,0,0,0-1.06-.7H13.23a1,1,0,0,0-1,.7L7.4,62.78A5,5,0,0,1,5.59,65.3,4.92,4.92,0,0,1,2.63,66.23Zm22.69-58L14.55,41.06a.49.49,0,0,0,.09.49.56.56,0,0,0,.44.22H35.83a.45.45,0,0,0,.4-.22.92.92,0,0,0,.13-.49L25.59,8.21a.08.08,0,0,0-.09-.09Q25.32,8.12,25.32,8.21Z"/><path class="cls-1" d="M64.61,65.17a3.53,3.53,0,0,1-5,0,3.49,3.49,0,0,1-1-2.48V3.53a3.49,3.49,0,0,1,1-2.47,3.53,3.53,0,0,1,5,0,3.49,3.49,0,0,1,1,2.47V62.69A3.49,3.49,0,0,1,64.61,65.17Z"/><path class="cls-1" d="M88.79,67.11a13.27,13.27,0,0,1-9.8-3.8,13.6,13.6,0,0,1-3.8-10.06A14,14,0,0,1,81,41.5q5.82-4.41,18.63-4.41h4.5c.53,0,.8-.24.8-.71V34.7c0-3.59-.83-6.1-2.47-7.55S97.91,25,93.73,25a42.44,42.44,0,0,0-13.15,2.3A2.08,2.08,0,0,1,78.64,27a2,2,0,0,1-.89-1.77,3.77,3.77,0,0,1,2.92-4,47.46,47.46,0,0,1,13.06-1.85q10.15,0,14.09,3.71t3.93,13.33V63.05a3.18,3.18,0,0,1-3.18,3.18,3.23,3.23,0,0,1-2.3-.93,3,3,0,0,1-1-2.25l-.09-4.59c0-.06,0-.09-.08-.09s-.18.06-.18.17Q99.75,67.11,88.79,67.11ZM99.65,41.94q-8.75,0-13.2,2.83A8.91,8.91,0,0,0,82,52.72a9,9,0,0,0,2.25,6.4,7.74,7.74,0,0,0,6,2.43,14.27,14.27,0,0,0,10.56-4.24c2.79-2.83,4.19-6.56,4.19-11.22V42.74a.71.71,0,0,0-.8-.8Z"/><path class="cls-1" d="M127.37,65.17a3.53,3.53,0,0,1-5,0,3.45,3.45,0,0,1-1-2.48v-39a3.37,3.37,0,0,1,5.74-2.38,3.27,3.27,0,0,1,1,2.38v6.8a.08.08,0,0,0,.09.09.15.15,0,0,0,.17-.17,19.72,19.72,0,0,1,7.46-7.11,24,24,0,0,1,10.82-3,2.62,2.62,0,0,1,2.12.79,2.89,2.89,0,0,1,.88,2.12,2.84,2.84,0,0,1-.84,2,3.07,3.07,0,0,1-2.07,1q-8.74.35-13.51,5.07t-4.77,13.2V62.69A3.49,3.49,0,0,1,127.37,65.17Z"/><path class="cls-3" d="M158.43,66.23a5.14,5.14,0,0,1-5-5V25.34a5.12,5.12,0,0,1,5-5h3.26a4.86,4.86,0,0,1,3.58,1.46,5.55,5.55,0,0,1,1.63,3.57l.09.8a.08.08,0,0,0,.09.09q.18,0,.18-.09,5.2-6.72,11.92-6.71a12.31,12.31,0,0,1,6.44,1.45A13.55,13.55,0,0,1,190,26.05c0,.12.06.18.17.18l.18-.18q6.09-6.63,12.72-6.62,7.5,0,10.86,4t3.35,13.65v24.1a5.14,5.14,0,0,1-5,5H208.4a5.14,5.14,0,0,1-5-5V38q0-4.77-1.06-6.31c-.7-1-2-1.55-4-1.55a5.88,5.88,0,0,0-3.93,1.68,4.59,4.59,0,0,0-1.9,3.27V61.19a5.14,5.14,0,0,1-5,5h-3.89a5.14,5.14,0,0,1-5-5V38q0-4.77-1-6.31c-.67-1-2-1.55-3.93-1.55a6,6,0,0,0-4,1.68,4.56,4.56,0,0,0-1.94,3.27V61.19a5.14,5.14,0,0,1-5,5Z"/><path class="cls-3" d="M250.51,65.51q-11.61,3.1-19.45-1.1T220.2,49q-3-11.18,1-18.6t14.58-10.26q20.29-5.44,26.58,16.65a4.58,4.58,0,0,1-.65,3.87A5.44,5.44,0,0,1,258.46,43l-22.77,6.1c-.57.16-.73.47-.48.95q1.93,4.51,5.42,5.73t9.36-.36a35.76,35.76,0,0,0,8-3.33,3.71,3.71,0,0,1,3.38-.17,3.63,3.63,0,0,1,2.19,2.52l0,.17a6.52,6.52,0,0,1-.28,4.24,5.37,5.37,0,0,1-2.81,3A57.23,57.23,0,0,1,250.51,65.51Zm-12-36.19c-2.55.68-4.31,1.87-5.26,3.56s-1.16,4.19-.63,7.53c.12.45.38.63.78.52l14.41-3.86a.71.71,0,0,0,.56-1Q245.7,27.41,238.52,29.32Z"/><path class="cls-2" d="M274.66,54.85a5.58,5.58,0,0,1-3.54-2.68,6.38,6.38,0,0,1-.75-4.46l8.18-38.38a5.37,5.37,0,0,1,2.52-3.53,5.27,5.27,0,0,1,4.28-.65l8.82,2.37a5.37,5.37,0,0,1,3.43,2.7,5,5,0,0,1,.37,4.31L286,51.89a5.77,5.77,0,0,1-2.87,3.49,5.92,5.92,0,0,1-4.51.52Zm2.8,9.16a5.89,5.89,0,0,1,4.09,7.1l-.94,3.53a5.91,5.91,0,0,1-7.09,4.09l-5.89-1.58a5.91,5.91,0,0,1-4.09-7.09l.95-3.53a5.87,5.87,0,0,1,7.08-4.09Z"/></svg>